<svg width="135" height="45" viewBox="0 0 135 45" fill="none" xmlns="http://www.w3.org/2000/svg">
<rect x="0.477539" y="0.262939" width="44" height="44" rx="16" fill="#40BFFF"/>
<path fill-rule="evenodd" clip-rule="evenodd" d="M31.5394 20.5345C32.494 21.4891 32.494 23.0368 31.5394 23.9914L24.2061 31.3248C23.2515 32.2794 21.7037 32.2794 20.7491 31.3248L13.4158 23.9914C12.4612 23.0368 12.4612 21.4891 13.4158 20.5345L20.7491 13.2011C21.7037 12.2465 23.2515 12.2465 24.2061 13.2011L31.5394 20.5345ZM22.4776 18.3866L18.6012 22.2629L22.4776 26.1393L26.354 22.2629L22.4776 18.3866Z" fill="white"/>
<path d="M54.987 19.8707V22.4267H59.109V24.8027H54.987V27.5747H59.649V30.0407H51.909V17.4047H59.649V19.8707H54.987ZM69.3873 22.4447V25.0007H61.4673V22.4447H69.3873ZM71.5667 23.7047C71.5667 22.4567 71.8367 21.3467 72.3767 20.3747C72.9167 19.3907 73.6667 18.6287 74.6267 18.0887C75.5987 17.5367 76.6967 17.2607 77.9207 17.2607C79.4207 17.2607 80.7047 17.6567 81.7727 18.4487C82.8407 19.2407 83.5547 20.3207 83.9147 21.6887H80.5307C80.2787 21.1607 79.9187 20.7587 79.4507 20.4827C78.9947 20.2067 78.4727 20.0687 77.8847 20.0687C76.9367 20.0687 76.1687 20.3987 75.5807 21.0587C74.9927 21.7187 74.6987 22.6007 74.6987 23.7047C74.6987 24.8087 74.9927 25.6907 75.5807 26.3507C76.1687 27.0107 76.9367 27.3407 77.8847 27.3407C78.4727 27.3407 78.9947 27.2027 79.4507 26.9267C79.9187 26.6507 80.2787 26.2487 80.5307 25.7207H83.9147C83.5547 27.0887 82.8407 28.1687 81.7727 28.9607C80.7047 29.7407 79.4207 30.1307 77.9207 30.1307C76.6967 30.1307 75.5987 29.8607 74.6267 29.3207C73.6667 28.7687 72.9167 28.0067 72.3767 27.0347C71.8367 26.0627 71.5667 24.9527 71.5667 23.7047ZM90.3716 30.1847C89.3876 30.1847 88.4996 29.9747 87.7076 29.5547C86.9276 29.1347 86.3096 28.5347 85.8536 27.7547C85.4096 26.9747 85.1876 26.0627 85.1876 25.0187C85.1876 23.9867 85.4156 23.0807 85.8716 22.3007C86.3276 21.5087 86.9516 20.9027 87.7436 20.4827C88.5356 20.0627 89.4236 19.8527 90.4076 19.8527C91.3916 19.8527 92.2796 20.0627 93.0716 20.4827C93.8636 20.9027 94.4876 21.5087 94.9436 22.3007C95.3996 23.0807 95.6276 23.9867 95.6276 25.0187C95.6276 26.0507 95.3936 26.9627 94.9256 27.7547C94.4696 28.5347 93.8396 29.1347 93.0356 29.5547C92.2436 29.9747 91.3556 30.1847 90.3716 30.1847ZM90.3716 27.5207C90.9596 27.5207 91.4576 27.3047 91.8656 26.8727C92.2856 26.4407 92.4956 25.8227 92.4956 25.0187C92.4956 24.2147 92.2916 23.5967 91.8836 23.1647C91.4876 22.7327 90.9956 22.5167 90.4076 22.5167C89.8076 22.5167 89.3096 22.7327 88.9136 23.1647C88.5176 23.5847 88.3196 24.2027 88.3196 25.0187C88.3196 25.8227 88.5116 26.4407 88.8956 26.8727C89.2916 27.3047 89.7836 27.5207 90.3716 27.5207ZM110.077 19.8887C111.325 19.8887 112.315 20.2667 113.047 21.0227C113.791 21.7787 114.163 22.8287 114.163 24.1727V30.0407H111.103V24.5867C111.103 23.9387 110.929 23.4407 110.581 23.0927C110.245 22.7327 109.777 22.5527 109.177 22.5527C108.577 22.5527 108.103 22.7327 107.755 23.0927C107.419 23.4407 107.251 23.9387 107.251 24.5867V30.0407H104.191V24.5867C104.191 23.9387 104.017 23.4407 103.669 23.0927C103.333 22.7327 102.865 22.5527 102.265 22.5527C101.665 22.5527 101.191 22.7327 100.843 23.0927C100.507 23.4407 100.339 23.9387 100.339 24.5867V30.0407H97.2605V19.9967H100.339V21.2567C100.651 20.8367 101.059 20.5067 101.563 20.2667C102.067 20.0147 102.637 19.8887 103.273 19.8887C104.029 19.8887 104.701 20.0507 105.289 20.3747C105.889 20.6987 106.357 21.1607 106.693 21.7607C107.041 21.2087 107.515 20.7587 108.115 20.4107C108.715 20.0627 109.369 19.8887 110.077 19.8887ZM129.131 19.8887C130.379 19.8887 131.369 20.2667 132.101 21.0227C132.845 21.7787 133.217 22.8287 133.217 24.1727V30.0407H130.157V24.5867C130.157 23.9387 129.983 23.4407 129.635 23.0927C129.299 22.7327 128.831 22.5527 128.231 22.5527C127.631 22.5527 127.157 22.7327 126.809 23.0927C126.473 23.4407 126.305 23.9387 126.305 24.5867V30.0407H123.245V24.5867C123.245 23.9387 123.071 23.4407 122.723 23.0927C122.387 22.7327 121.919 22.5527 121.319 22.5527C120.719 22.5527 120.245 22.7327 119.897 23.0927C119.561 23.4407 119.393 23.9387 119.393 24.5867V30.0407H116.315V19.9967H119.393V21.2567C119.705 20.8367 120.113 20.5067 120.617 20.2667C121.121 20.0147 121.691 19.8887 122.327 19.8887C123.083 19.8887 123.755 20.0507 124.343 20.3747C124.943 20.6987 125.411 21.1607 125.747 21.7607C126.095 21.2087 126.569 20.7587 127.169 20.4107C127.769 20.0627 128.423 19.8887 129.131 19.8887Z" fill="#22262A"/>
</svg>
